<svg width="161" height="161" viewBox="0 0 161 161" fill="none" xmlns="http://www.w3.org/2000/svg">
<circle cx="80.5" cy="80.5" r="80.5" fill="#E4D9C7"/>
<circle cx="80" cy="80" r="59.5" stroke="black"/>
<circle cx="80.5" cy="80.5" r="51" stroke="black" stroke-width="3"/>
<path d="M66.448 96H49.84V91.824H57.568V67.824H56.992L51.664 73.152L48.688 70.176L56.032 62.832H62.32V91.824H66.448V96ZM89.8319 91.824L85.6559 96H77.3519L73.2239 91.824V67.008L77.3519 62.832H85.6559L89.8319 67.008V91.824ZM85.0799 91.824V67.008H77.9759V91.824H85.0799ZM113.504 91.824L109.328 96H101.024L96.8958 91.824V67.008L101.024 62.832H109.328L113.504 67.008V91.824ZM108.752 91.824V67.008H101.648V91.824H108.752Z" fill="black"/>
</svg>
